<svg xmlns="http://www.w3.org/2000/svg" viewBox="0 0 1345.84 423.88"><g id="Capa_2" data-name="Capa 2"><g id="Recorte"><g id="Cream"><path d="M171.31,192.6H241c-4.15,28.39-18.35,50-39.28,64.88q-31.44,23.32-79.07,23.31-57.78,0-90.22-37.5Q0,206.8,0,138.88,0,74,31.42,37.51,63.86,0,121.64,0q60.83,0,94.28,36.49a139.17,139.17,0,0,1,26.35,51.7h-71Q166.22,78.07,161.18,73,148,58.8,123.67,58.79q-22.31,0-36.49,14.2-18.25,20.28-18.25,66.9t18.25,65.89Q100.34,222,126.71,222c11.49,0,22.72-.85,34.37-7.92C169.36,209.08,171.31,192.6,171.31,192.6Z"/><path d="M414.37,8.76V81.47H391.55q-29,0-43,14.31t-14,45V249.44c0,17.31-13.75,31.34-30.7,31.34h-39.3V149.05q0-39.93,11.49-67.07T307.5,38.46C320.14,28.22,329.83,21.89,352,15.93,372.54,10.38,414.37,8.76,414.37,8.76Z"/><path d="M552.5,8.76q-57.27,0-89.42,36.34-31.17,35.34-31.15,98.2,0,65.8,32.15,101.14,32.15,36.35,89.42,36.34,47.22,0,78.37-22.59,31.14-21.58,42.2-62.85H623.84q-12.06,0-18.59,4.91c-4.37,3.29-10,11-18.13,16.13-5.85,4.31-18.22,7.44-29.6,7.44q-26.13,0-39.18-15.71-14.09-14.73-15.07-45.17H678c.08-1.24.13-15.06.13-17.68q0-64.81-32.15-101.15Q612.79,8.77,552.5,8.76ZM504.35,118.53q1-25.41,15-39.1t36-13.68q24,0,37,13.68,12,12.72,14,39.1Z"/><path d="M789.38,115.22c-33.26,7.61-45.17,10.31-63.45,26-15.26,13.11-24.17,29.57-24.17,57.07q0,44.19,27,63.34t63,19.15a407,407,0,0,0,41.51-2.45,124.8,124.8,0,0,0,44.5-13.26q20-9.81,34.5-31.92t14.5-61.38V82.42q0-35.36-29-55-28-18.65-84-18.66-50,0-77,22.59-24,19.65-28,50.08h67a27.11,27.11,0,0,1,16-14.73,71.61,71.61,0,0,1,25-3.93c34.06.43,44.91,14,43.2,23.68C858.19,98.85,806.61,111.52,789.38,115.22Zm71.71,29.89a.42.42,0,0,1,.6.38v23.88q0,27.51-16,43.21t-44,15.72q-17,0-26-7.85l0,0q-9-8.83-9-23.55c0-.51,0-1,0-1.54.58-12.68,9-23.7,20.84-28.72a86.6,86.6,0,0,1,12.6-4.14c7.31-1.62,22.52-4.88,22.52-4.88Q847.15,151.82,861.09,145.11Z"/><path d="M1262.48,75.77q14.57,11,14.59,35v136q0,15,9.55,24.5t24.65,9.5h34.57v-156q0-70-37-93a150.83,150.83,0,0,0-81.09-23,199.79,199.79,0,0,0-42.55,6.5,88.67,88.67,0,0,0-35.54,18.5,94.88,94.88,0,0,0-40-20,203.09,203.09,0,0,0-45-5,155.48,155.48,0,0,0-78.58,25q-35.55,23-35.54,91v156h39.3a30.71,30.71,0,0,0,30.7-30.7V110.77q0-24,14.05-35a50.69,50.69,0,0,1,32.11-11,52.82,52.82,0,0,1,32.62,11q14.54,11,14.55,35v170h68.77v-170q0-24,14.59-35a54,54,0,0,1,65.38,0Z"/></g><path d="M310.88,389.91l-8.77,9.45v23.4H285.23v-81.9h16.88V378l7.42-10.18,20.87-26.95h20.76l-29.08,36.4L352,422.76H331.92Z"/><path d="M491.49,422.76H474.62v-81.9h16.87Z"/><path d="M686.61,395.48q-.95,13.22-9.76,20.81t-23.2,7.59q-15.75,0-24.77-10.6t-9-29.11v-5A49.14,49.14,0,0,1,624,358.36a31.18,31.18,0,0,1,11.9-13.81,33.26,33.26,0,0,1,18-4.81q14.18,0,22.84,7.59t10,21.32H669.85q-.61-7.93-4.41-11.5t-11.56-3.57q-8.45,0-12.63,6T637,378.38v6.19q0,13.28,4,19.4t12.68,6.13q7.83,0,11.67-3.57t4.42-11Z"/><path d="M838.54,389.91l-8.78,9.45v23.4H812.89v-81.9h16.87V378l7.43-10.18,20.87-26.95h20.75l-29.08,36.4,29.92,45.5H859.57Z"/><path d="M1043.67,401.27a8.67,8.67,0,0,0-3.37-7.34q-3.37-2.55-12.15-5.4a86.94,86.94,0,0,1-13.9-5.59q-13.95-7.54-14-20.31a19.75,19.75,0,0,1,3.75-11.84,24.35,24.35,0,0,1,10.74-8.13,40.44,40.44,0,0,1,15.72-2.92,36.82,36.82,0,0,1,15.64,3.18,25,25,0,0,1,10.66,9,23.47,23.47,0,0,1,3.79,13.16h-16.87q0-5.62-3.55-8.75t-10-3.12q-6.2,0-9.62,2.62a8.24,8.24,0,0,0-3.43,6.89q0,4,4,6.69a45.29,45.29,0,0,0,11.84,5.06q14.4,4.33,21,10.75a21.37,21.37,0,0,1,6.58,16q0,10.63-8,16.68t-21.66,6a41.92,41.92,0,0,1-17.21-3.45,27.32,27.32,0,0,1-11.84-9.48A24.25,24.25,0,0,1,997.77,397h16.93q0,13.56,16.2,13.55,6,0,9.4-2.44A8,8,0,0,0,1043.67,401.27Z"/></g></g></svg>