<?xml version="1.0" encoding="UTF-8"?>
<svg xmlns="http://www.w3.org/2000/svg" xmlns:xlink="http://www.w3.org/1999/xlink" width="px" height="px" viewBox="0 0 1875 1875" version="1.1">
<g id="surface1">
<rect x="0" y="0" width="1875" height="1875" style="fill:rgb(100%,100%,100%);fill-opacity:1;stroke:none;"/>
<path style=" stroke:none;fill-rule:evenodd;fill:rgb(0%,0%,0%);fill-opacity:1;" d="M 781.332031 902.0625 L 572.089844 909.515625 L 770.765625 920.554688 Z M 756.300781 946.03125 L 546.566406 953.488281 L 745.980469 964.570312 Z M 731.273438 990.371094 L 521.800781 997.722656 L 720.972656 1008.792969 Z M 706.757812 1034.480469 L 497.027344 1041.949219 L 695.957031 1053 Z M 963.140625 680.132812 L 696.089844 689.636719 L 963.902344 704.519531 Z M 961.449219 636.496094 L 721.542969 644.910156 L 962.207031 658.714844 Z M 959.738281 594.410156 L 745.988281 601.441406 L 960.769531 613.363281 Z M 958.292969 551.199219 L 770.941406 557.460938 L 959.039062 568.570312 Z M 957.082031 516.269531 L 794.128906 516.269531 L 957.324219 524.925781 Z M 681.488281 1078.574219 L 472.261719 1086.152344 L 677.214844 1086.152344 Z M 681.488281 1078.574219 "/>
<path style=" stroke:none;fill-rule:evenodd;fill:rgb(0%,0%,0%);fill-opacity:1;" d="M 1390.550781 517.675781 L 1089.023438 517.675781 L 1080.472656 532.816406 L 1231.363281 540.820312 C 1233.136719 540.820312 1233.136719 543.328125 1230.605469 543.328125 L 1071.679688 548.644531 L 1056.347656 575.464844 L 1206.207031 584.320312 C 1208.222656 584.574219 1207.722656 587.339844 1205.964844 587.339844 L 1046.777344 592.570312 L 1031.964844 618.257812 L 1181.578125 626.566406 C 1184.847656 626.816406 1184.847656 629.589844 1181.578125 629.589844 L 1022.652344 635.167969 L 1007.566406 662.035156 L 1156.6875 670.582031 C 1159.957031 670.832031 1159.710938 673.851562 1156.6875 673.851562 L 997.761719 679.511719 L 982.410156 706.050781 L 1131.773438 714.347656 C 1134.027344 714.597656 1134.304688 717.371094 1131.277344 717.371094 L 673.347656 732.707031 L 1107.890625 756.855469 C 1110.644531 756.855469 1110.402344 760.378906 1107.378906 760.378906 L 648.703125 776.722656 L 1083.253906 800.859375 C 1085.269531 800.859375 1085.765625 804.128906 1082.738281 804.128906 L 623.308594 820.722656 L 1057.855469 844.871094 C 1059.628906 845.121094 1061.367188 848.390625 1057.613281 848.644531 L 598.910156 864.960938 L 1033.453125 889.097656 C 1034.707031 889.347656 1035.960938 892.617188 1032.957031 892.617188 L 802.097656 900.847656 L 802.851562 921.683594 L 1008.558594 933.113281 C 1010.058594 933.363281 1010.8125 936.378906 1008.042969 936.378906 L 803.613281 943.644531 L 804.613281 966.957031 L 983.167969 976.875 C 984.917969 977.128906 985.683594 980.648438 982.652344 980.648438 L 805.617188 986.863281 L 806.386719 1012.441406 L 958.527344 1020.890625 C 960.28125 1021.136719 960.785156 1024.40625 957.773438 1024.40625 L 807.144531 1029.785156 L 808.148438 1057.917969 L 933.878906 1064.902344 C 935.652344 1065.152344 935.652344 1068.175781 933.136719 1068.175781 L 808.652344 1072.683594 L 809.15625 1084.769531 L 1215.042969 1084.769531 C 1322.667969 1084.769531 1419.214844 1006.3125 1437.328125 943.941406 C 1455.449219 881.578125 1455.449219 825.246094 1368.9375 797.085938 C 1417.230469 786.019531 1501.207031 731.554688 1517.8125 656.253906 C 1532.871094 587.839844 1507.734375 517.933594 1390.550781 517.675781 Z M 1186.394531 954.433594 L 1061.671875 954.433594 L 1132.078125 829.699219 L 1224.621094 829.699219 C 1320.183594 829.699219 1273.898438 954.433594 1186.394531 954.433594 Z M 1347.824219 686.847656 C 1343.800781 701.933594 1313.605469 740.160156 1275.410156 740.160156 L 1182.863281 740.160156 L 1242.199219 635.554688 L 1289.484375 635.554688 C 1349.824219 637.570312 1351.832031 671.769531 1347.824219 686.847656 Z M 1847.433594 1265.511719 C 1847.433594 1217.179688 1807.246094 1176.699219 1758.914062 1176.699219 C 1709.324219 1176.699219 1668.839844 1217.824219 1668.839844 1268.34375 C 1668.738281 1292.347656 1678.230469 1315.402344 1695.207031 1332.375 C 1712.179688 1349.347656 1735.230469 1358.835938 1759.238281 1358.730469 C 1795.933594 1358.730469 1830.777344 1333.621094 1841.136719 1299.417969 L 1795.3125 1299.417969 C 1786.207031 1313.847656 1774.300781 1320.433594 1757.957031 1320.433594 C 1737.253906 1320.433594 1718.746094 1306.3125 1712.777344 1286.226562 L 1845.214844 1286.226562 C 1846.800781 1276.503906 1847.433594 1271.789062 1847.433594 1265.511719 Z M 1711.535156 1253.414062 C 1717.496094 1229.878906 1736.324219 1214.808594 1759.546875 1214.808594 C 1782.785156 1214.808594 1800.984375 1229.558594 1806.628906 1253.414062 Z M 1252.453125 1185.070312 L 1252.453125 1199.160156 C 1239.28125 1185.042969 1220.199219 1177.007812 1199.789062 1177.007812 C 1154.597656 1177.007812 1116.066406 1215.605469 1116.066406 1265.824219 C 1116.066406 1313.207031 1150.148438 1355.707031 1200.679688 1355.707031 C 1222.96875 1355.707031 1239.914062 1350.5625 1255.917969 1332.363281 L 1255.917969 1354.644531 L 1294.21875 1354.644531 L 1294.21875 1185.070312 Z M 1205.671875 1319.765625 C 1176.605469 1319.765625 1153.042969 1296.199219 1153.042969 1267.136719 C 1153.042969 1238.066406 1176.605469 1214.507812 1205.671875 1214.507812 C 1234.738281 1214.507812 1258.300781 1238.066406 1258.300781 1267.136719 C 1258.300781 1296.199219 1234.738281 1319.765625 1205.671875 1319.765625 Z M 111.058594 1176.683594 C 93.800781 1176.683594 80.621094 1182.652344 66.175781 1197.402344 L 66.175781 1180.769531 L 27.566406 1180.769531 L 27.566406 1354.644531 L 69.316406 1354.644531 L 69.316406 1272.722656 C 69.316406 1250.449219 71.191406 1214.972656 101.953125 1214.972656 C 130.824219 1214.972656 133.964844 1248.238281 133.964844 1269.582031 L 133.964844 1354.636719 L 175.707031 1354.636719 L 175.707031 1261.417969 C 175.707031 1236.9375 173.832031 1225.332031 167.230469 1211.519531 C 157.503906 1190.808594 134.597656 1176.683594 111.058594 1176.683594 Z M 370.425781 1265.511719 C 370.425781 1217.179688 330.253906 1176.699219 281.917969 1176.699219 C 232.332031 1176.699219 191.839844 1217.824219 191.839844 1268.34375 C 191.742188 1292.347656 201.234375 1315.394531 218.207031 1332.371094 C 235.175781 1349.339844 258.230469 1358.832031 282.230469 1358.730469 C 318.949219 1358.730469 353.785156 1333.621094 364.144531 1299.417969 L 318.328125 1299.417969 C 309.222656 1313.847656 297.300781 1320.433594 280.972656 1320.433594 C 260.261719 1320.433594 241.746094 1306.3125 235.78125 1286.226562 L 368.222656 1286.226562 C 369.800781 1276.503906 370.425781 1271.789062 370.425781 1265.511719 Z M 234.535156 1253.414062 C 240.496094 1229.878906 259.332031 1214.808594 282.558594 1214.808594 C 305.789062 1214.808594 323.988281 1229.558594 329.636719 1253.414062 Z M 1057.222656 1354.5 L 1098.960938 1354.5 L 1098.960938 1122.5625 L 1057.222656 1122.5625 Z M 1404.347656 1176.683594 C 1387.078125 1176.683594 1373.886719 1182.652344 1359.449219 1197.402344 L 1359.449219 1180.769531 L 1320.84375 1180.769531 L 1320.84375 1354.644531 L 1362.605469 1354.644531 L 1362.605469 1272.722656 C 1362.605469 1250.449219 1364.480469 1214.972656 1395.238281 1214.972656 C 1424.097656 1214.972656 1427.25 1248.238281 1427.25 1269.582031 L 1427.25 1354.636719 L 1468.992188 1354.636719 L 1468.992188 1261.417969 C 1468.992188 1236.9375 1467.113281 1225.332031 1460.519531 1211.519531 C 1450.792969 1190.808594 1427.882812 1176.683594 1404.347656 1176.683594 Z M 1573.191406 1214.980469 C 1592.324219 1214.980469 1603.308594 1221.261719 1613.675781 1238.835938 L 1660.734375 1238.835938 C 1647.878906 1201.488281 1614.933594 1176.683594 1574.746094 1176.683594 C 1523.902344 1176.683594 1483.097656 1217.167969 1483.097656 1267.082031 C 1483.097656 1317.292969 1524.210938 1358.722656 1574.746094 1358.722656 C 1600.804688 1358.582031 1625.613281 1347.542969 1643.15625 1328.273438 C 1651.949219 1318.546875 1655.089844 1312.898438 1660.734375 1297.527344 L 1613.675781 1297.527344 C 1603.925781 1312.589844 1591.386719 1320.425781 1575.699219 1320.425781 C 1546.5 1320.425781 1524.855469 1297.828125 1524.855469 1267.691406 C 1524.855469 1237.265625 1545.5625 1214.980469 1573.191406 1214.980469 Z M 529.972656 1286.859375 L 500.414062 1180.78125 L 466.824219 1180.78125 L 436.941406 1286.859375 L 401.601562 1180.78125 L 364.777344 1180.78125 L 422.832031 1354.644531 L 449.566406 1354.644531 L 483.46875 1241.980469 L 516.417969 1354.644531 L 544.476562 1354.644531 L 600.144531 1180.78125 L 565.636719 1180.78125 Z M 753.613281 1176.867188 C 733.21875 1176.867188 714.128906 1184.90625 700.949219 1199.019531 L 700.949219 1122.574219 L 659.203125 1122.574219 L 659.203125 1354.5 L 697.488281 1354.5 L 697.488281 1332.222656 C 713.503906 1350.425781 730.441406 1355.558594 752.730469 1355.558594 C 803.261719 1355.558594 837.347656 1313.074219 837.347656 1265.675781 C 837.355469 1215.46875 798.820312 1176.867188 753.613281 1176.867188 Z M 747.730469 1319.765625 C 718.664062 1319.765625 695.097656 1296.199219 695.097656 1267.136719 C 695.097656 1238.066406 718.664062 1214.507812 747.730469 1214.507812 C 776.792969 1214.507812 800.363281 1238.066406 800.363281 1267.136719 C 800.363281 1296.199219 776.792969 1319.765625 747.730469 1319.765625 Z M 987.585938 1185.070312 L 987.585938 1199.160156 C 974.410156 1185.042969 955.332031 1177.007812 934.921875 1177.007812 C 889.730469 1177.007812 851.179688 1215.605469 851.179688 1265.824219 C 851.179688 1313.207031 885.277344 1355.707031 935.792969 1355.707031 C 958.082031 1355.707031 975.027344 1350.5625 991.035156 1332.363281 L 991.035156 1354.644531 L 1029.328125 1354.644531 L 1029.328125 1185.070312 Z M 940.816406 1319.765625 C 911.746094 1319.765625 888.1875 1296.199219 888.1875 1267.136719 C 888.1875 1238.066406 911.746094 1214.507812 940.816406 1214.507812 C 969.886719 1214.507812 993.445312 1238.066406 993.445312 1267.136719 C 993.445312 1296.199219 969.886719 1319.765625 940.816406 1319.765625 Z M 940.816406 1319.765625 "/>
</g>
</svg>
