<?xml version="1.0" encoding="UTF-8"?>
<svg xmlns="http://www.w3.org/2000/svg" xmlns:xlink="http://www.w3.org/1999/xlink" width="px" height="px" viewBox="0 0 1875 1875" version="1.1">
<g id="surface1">
<rect x="0" y="0" width="1875" height="1875" style="fill:rgb(100%,100%,100%);fill-opacity:1;stroke:none;"/>
<path style=" stroke:none;fill-rule:evenodd;fill:rgb(0%,0%,0%);fill-opacity:1;" d="M 415.757812 695.277344 C 319.640625 808.152344 227.484375 948.136719 226.558594 1052.761719 C 226.199219 1092.121094 238.769531 1126.496094 268.910156 1152.519531 C 312.292969 1190.011719 360.09375 1203.230469 407.660156 1203.308594 C 477.175781 1203.402344 546.199219 1175.363281 600.246094 1153.738281 C 691.261719 1117.335938 1697.390625 680.414062 1697.390625 680.414062 C 1707.09375 675.550781 1705.277344 669.492188 1693.128906 672.515625 C 1688.226562 673.746094 597.800781 969.253906 597.800781 969.253906 C 577.148438 975.09375 555.800781 978.144531 534.339844 978.332031 C 450.539062 978.832031 375.972656 932.316406 376.574219 834.292969 C 376.804688 795.9375 388.546875 749.683594 415.757812 695.277344 Z M 415.757812 695.277344 "/>
</g>
</svg>
