<svg xmlns="http://www.w3.org/2000/svg" viewBox="0 0 586.61 586.61"><defs><style>.cls-1,.cls-2{fill:#fff;}.cls-2{font-size:68.74px;font-family:Roboto-Black, Roboto;font-weight:800;letter-spacing:-0.1em;}</style></defs><g id="Capa_2" data-name="Capa 2"><g id="Recorte"><g id="C_imagotipo" data-name="C imagotipo"><path id="Imagotipo" d="M544.29,34.27C496.39,15.82,393.35,2.11,293.3,0c-100,2.11-203.09,15.82-251,34.27S.22,84.35.22,84.35L61.57,501.1a102.68,102.68,0,0,0,11.17,34.17,97,97,0,0,0,24.43,29.34,100.87,100.87,0,0,0,63.41,22H426a100.89,100.89,0,0,0,63.41-22,97.1,97.1,0,0,0,24.43-29.34A102.68,102.68,0,0,0,525,501.1L586.39,84.35S592.18,52.72,544.29,34.27Z"/><g id="c"><path class="cls-1" d="M354.21,356.67h84.58c-5,34.45-22.26,60.71-47.67,78.74q-38.16,28.32-96,28.3-70.12,0-109.5-45.52-39.39-44.29-39.38-126.73,0-78.72,38.15-123,39.36-45.49,109.5-45.52,73.82,0,114.42,44.29,22.16,27.08,32,62.75H354.21Q348,217.66,341.9,211.48q-16-17.21-45.52-17.22-27.08,0-44.29,17.22-22.15,24.63-22.15,81.21t22.15,80q16,19.69,48,19.69c13.94,0,27.58-1,41.72-9.61C351.83,376.67,354.21,356.67,354.21,356.67Z"/></g><text class="cls-2" transform="translate(440.33 174.66)">®</text></g></g></g></svg>